<?xml version="1.0" standalone="yes"?>
<svg width="354" height="472">
<path style="fill:#636363; stroke:none;" d="M0 0L1 36L17 35L16 32L23 29L22 27C31.2736 24.4844 43.5988 14.2309 44 4L49 2L31 0.985352L0 0z"/>
<path style="fill:#777777; stroke:none;" d="M25 0L25 1L49 1L49 2L44 4C42.7003 14.7103 31.0428 23.0264 22 27L23 29L16 32L17 35L1 36L1 17L0 17L1 73L15 69L27 58L36 55L36 51L66 32L66 27C72.134 25.4657 78.645 20.9234 81 15L96 11L103 2L77 0L25 0z"/>
<path style="fill:#8a8a8a; stroke:none;" d="M90 0L90 1L103 1L103 2L96 11L81 15C77.7057 20.6363 72.0468 24.6129 66 27L66 32C60.6429 30.2143 53.315 39.4217 50 42C49.0106 42.7696 46.0394 42.2724 45 43C41.7529 45.2729 38.5758 51.644 36 51L36 55L27 58L15 69L1 73L1 65L0 65L1 136L5 136L14 123L18 123C20.7826 117.51 29.0987 108.565 35 107L48 91C51.5701 84.8586 56.4782 79.8562 64 80C64.5951 70.4363 81.6788 62.2303 90 60C96.6017 47.638 117.181 36.6867 131 38L134 33L136 34C141.599 29.7144 155.734 31.8779 158 25L206 24.2855L264 39C265.804 44.3203 271.826 46.2216 277 47L277 51L287 53L287 54L285 55L290 60L317 76L316 78L335 97L348 102C348.192 105.993 350.451 107.46 354 109L354 76L353.397 62.429L340.289 54.3295L317 42C316.861 37.8284 316.253 35.9282 312 35L313 32L292 22L293 18L284 16L273 2L273 1L276 1L258 0L221 0L90 0z"/>
<path style="fill:#757575; stroke:none;" d="M273 1L273 2L284 16L293 18L292 22L313 32L312 35C315.768 36.3844 316.695 38.044 317 42L354 61L354 32L317 7L317 1L354 1L330 0L273 1z"/>
<path style="fill:#686868; stroke:none;" d="M317 1L317 7C330.204 13.6534 338.6 28.5064 354 32L354 1L317 1z"/>
<path style="fill:#9a9a9a; stroke:none;" d="M158 25L136 34L134 33L131 38C118.711 35.6451 94.1384 47.4473 90 60C81.4187 61.3024 63.9342 70.3983 64 80C56.4807 79.4884 50.7584 84.2156 48 91L46 89L35 107C29.2494 107.896 19.7963 117.33 18 123L14 123L5 136L1 136L1 123L0 123L1 161L33 132L32 118L36 114L40 114L47 105C45.695 101.668 50.3663 100.529 53 100C57.0624 91.1796 76.8445 87.9215 79 78L88 73L90 75C99.4855 58.9186 112.685 45.9985 131 40.5695C137.238 38.7203 143.942 40.2342 150 38.3472C157.044 36.1531 162.495 30.7253 170 29.1204C199.378 22.8376 230.036 36.9174 247 61L256.004 66.7531L284.91 81.8604L299 95C300.852 101.439 310.878 107.546 317 110L316 112C320.943 114.966 337.184 129.265 336 134C342.49 134.722 349.092 139.855 353 145L354 145L353.682 111.174L348 102L335 97C333.177 90.5059 321.894 81.1237 316 78L317 76C309.011 70.8284 299.669 60.6227 290 60L287 54L287 53L277 51L277 47C271.885 45.7738 266.662 43.7249 264 39L206 24.1698L158 25z"/>
<path style="fill:#453d3b; stroke:none;" d="M167 29L167 30L188 32L186 29L194 29L167 29z"/>
<path style="fill:#231f20; stroke:none;" d="M186 29L188 32L166 30L166 32L177 38L165 34L157 36L158 39C150.302 41.9247 142.204 39.2207 134 40.2894C117.258 42.4703 94.1893 57.3271 91 75L92 75L96 69L94 82L97 79L100 81L104 72L105 72L97 95L108 78L104 90L105 90L107 88L106 92L107 92L114 77L115 77L115 84L116 84L119 77L120 80L121 80L125 69L126 69L123 79L124 79L124 77L125 77L121 97L130 87L130 85L131 85L120 113C127.097 106.961 130.7 96.5075 134 88L135 88L131 102L132 102L142 86L140 103C144.221 100.67 146.003 96.6076 147 92L148 92L148 98L149 98L151 91L152 91L151 110L152 110L153 93L154 93L155 110L156 110L157 107L159 107L160 111C165.169 112.276 164.983 116.309 165 121L166 121L167 109L168 109L168 120L170 120L170 116L171 116L172 122C175.353 119.448 175.09 115.795 174 112L179 117L180 117L180 113L181 113L183 122L184 134C177.625 135.13 191.094 147.666 194 149L192 140L199 145L197 141L211 145L211 144L207 143L207 142C213.049 142.738 227.67 151.878 232 147C246.376 152.447 246.961 164.766 247 179C251.965 175.818 256.012 160.84 257.856 155C266.523 127.555 260.641 104.859 246.677 80.0185C243.07 73.602 236.731 70.2036 234 63L240 72L242 70L247 75L238 58L245 66L246 66L236 47C231.154 46.8286 228.017 44.336 226 40L186 29z"/>
<path style="fill:#4c4847; stroke:none;" d="M135 39L135 40L158 39L157 36L165 34L177 38L166 30C154.364 34.1973 147.775 39 135 39z"/>
<path style="fill:#716d6a; stroke:none;" d="M201 30L201 31L207 31L201 30z"/>
<path style="fill:#453b3a; stroke:none;" d="M204 31L204 32L225 40C219.331 35.0748 211.542 31.3871 204 31z"/>
<path style="fill:#66625f; stroke:none;" d="M130 40L130 41L133 41L130 40z"/>
<path style="fill:#4d4240; stroke:none;" d="M226 40C226.986 43.4488 228.302 45.2491 232 45L226 40z"/>
<path style="fill:#66615e; stroke:none;" d="M232 44L231 45L234 48L235 47L232 44z"/>
<path style="fill:#413332; stroke:none;" d="M242 55L241 56L246 66L245 66L238 58L247 75L242 70L240 72L234 63L247.083 82.0008L260.806 111.424L264 129L265 129C265 106.362 264.44 87.9875 251.606 68.9105C248.141 63.7589 247.31 58.9201 242 55z"/>
<path style="fill:#3a3532; stroke:none;" d="M194 59C194.262 67.059 203.75 80.457 211 84L205 74C207.452 70.7568 202.02 65.7359 200 63L194 59z"/>
<path style="fill:#b8b8b8; stroke:none;" d="M248 60L265 99C270.634 98.8044 273.891 101.994 276 107C286.855 110.31 294.09 125.151 301.09 133.275C304.586 137.333 308.674 140.279 308 146L316 152L321 162L320 165L329 176L328 178L336 185C336.571 193.53 345.947 206.831 354 210L354 166C354 159.792 355.567 151.041 353.297 145.188C350.98 139.213 341.968 134.327 336 134C336.208 127 322.457 114.342 316 112L317 110C310.863 106.5 302.068 101.423 299 95L284.91 81.159L248 60z"/>
<path style="fill:#1b1310; stroke:none;" d="M249 65L254 72L249 65z"/>
<path style="fill:#302b27; stroke:none;" d="M95 69L92 75L90 74C74.555 100.467 81.8923 130.774 90.3125 158C93.1337 167.122 99.7646 173.988 100 184L101 184L104 144L107 149L113 152L127 144L126 150L130 144C134.069 146.533 136.266 143.055 139 140L140 126L139 126L134 137L136 128L135 128L130 137L129 137C132.344 128.955 133.782 118.446 141 113L144 116L150 100L150 105L151 105L152 91L151 91L149 98L148 98L148 92L147 92L140 103L142 86C136.576 89.6157 133.128 95.6501 132 102L131 102L135 88L134 88L120 113L131 85L130 85L129 87L121 97L125 77L124 77L124 79L123 79L126 69L125 69L118 86L119 86L120 82L121 82C122.137 90.4623 116.767 98.7156 113 106L112 106L112 102L111 102L109 106L108 106L115 77L114 77L107 92L106 92L107 88L105 90L104 90L108 78L97 95L105 72L104 72L100 81L97 79L94 82L95 69z"/>
<path style="fill:#ababab; stroke:none;" d="M87 73L79 78C79 82.7944 70.3923 84.3496 67.1667 86.5C64.8236 88.0621 64.0949 91.873 61.8333 93.6667C58.1269 96.6063 53.7039 93.8406 53 100C50.4228 100.289 44.4424 101.593 47 105L40 114L36 114L32 118L33 132L27.8889 136.5L20.8889 139.889L1 161L1 151L0 151L1 206L7 202L24.0093 175.548L31 163L32 154L39 151C39.9487 144.173 45.1882 142.857 48.7909 137.86C57.5713 125.682 65.9207 113.758 80 107L80 114L81 114C81 104.912 81.5131 95.7246 84.3596 87C85.8518 82.4264 90.035 77.4374 87 73z"/>
<path style="fill:#443c39; stroke:none;" d="M119 77L108 106L109 106L111 102L112 102L112 106L113 106C117.59 99.6247 122.706 89.9447 121 82L120 82L119 86L118 86L119 77z"/>
<path style="fill:#443c3a; stroke:none;" d="M153 93L152 107L153 107L153 105L154 105C153.121 116.142 147.615 143.852 159 151L158 147L159 147L166 151C163.084 143.987 159.209 137.796 161 130C164.337 130.903 165.935 130.859 168 128L169 128C169.256 133.484 171.146 136.194 175 140C181.447 137.657 187.301 150.229 193 153L192 150L195 152C195.769 147.001 196.082 143.431 192 140L194 149C191.756 147.13 188.59 147.498 187 145C185.075 141.975 180.232 133.058 184 134L183 122L181 113L180 113L180 117L179 117L174 112L172 122L171 116L170 116L170 120L168 120L168 109L167 109L166 121L165 121C164.997 116.5 165.732 110.908 160 111L159 107L157 107L156 110L155 110C155.001 104.453 157.314 97.1226 153 93z"/>
<path style="fill:#6a6260; stroke:none;" d="M263 94L263 102L264 102L263 94z"/>
<path style="fill:#d0d0d0; stroke:none;" d="M264 94C264.007 104.159 263.383 122.687 267.528 131.91C270.516 138.562 277.531 144.61 281.924 150.5C285.354 155.099 285.642 161.303 291 164L290 167L294 171L300 174L303 187L311 206L315 215C314.599 229.207 332.429 244.151 328 258L331 264C335.358 269.665 337.302 287.03 336 294L338 324L338.832 335.102L354 341L354 255L353.853 213.104L336 185L328 178L329 176L320 165L321 162L316 152L308 146C309.351 140.414 305.351 137.227 301.839 133.275C294.978 125.553 286.999 108.847 276 107C274.524 101.399 270.804 98.5008 265 99L264 94z"/>
<path style="fill:#64493e; stroke:none;" d="M149 100C143.517 110.117 149 127.311 149 139L137 136L139 140L135 145L156 148L150.594 128L149 100z"/>
<path style="fill:#8d7062; stroke:none;" d="M153 105L151 132L152 132C153.585 125.341 155.452 111.283 153 105z"/>
<path style="fill:#c1c1c1; stroke:none;" d="M39 151L32 154L31 163L24.0093 174.755L7 202L1 206L1 197L0 197L0 347L35 335C33.1975 315.854 33.5553 292.716 37.5448 274C38.7364 268.41 35.6402 259.475 41 256C39.1093 242.742 46.4534 229.595 49.3356 217C50.4988 211.917 51.409 203.942 56 201C55.5076 184.432 77.2875 175.645 76 160L79 161L85 152L88 153L80 107C65.1643 111.78 57.0887 126.445 48.1543 137.86C44.3017 142.783 39.4913 143.982 39 151z"/>
<path style="fill:#726d69; stroke:none;" d="M265 108L265 128L266 128L265 108z"/>
<path style="fill:#95674f; stroke:none;" d="M145 111L139 133L143 134C148.747 126.944 152.163 118.756 145 111z"/>
<path style="fill:#564d48; stroke:none;" d="M129 137L130 137L135 128L136 128L134 137L141 127L144 116L141 113C133.691 116.651 131.144 129.555 129 137z"/>
<path style="fill:#7b6057; stroke:none;" d="M155 118L155 132L156 132L155 118z"/>
<path style="fill:#dadada; stroke:none;" d="M266 125C263.412 133.295 256.768 150.366 258.408 158.83C259.451 164.21 264.657 166.817 264.96 173C265.28 179.516 260.908 185.848 261.491 191.83C262.12 198.283 267.796 201.658 267 209C274.078 214.872 275.009 227.186 277.709 235.576C286.809 263.85 292 292.219 292 322L338 335L337.015 306L336 294C337.586 288.174 335.674 268.022 331 264L328 258L330 256L330 255L326.36 244.428L315 215L311 206C306.063 200.5 310.384 189.34 303 187L300 174L298 172L294 171C293.856 167.961 292.974 167.506 290 167L291 164L283.044 151.285L266 125z"/>
<path style="fill:#a77d67; stroke:none;" d="M148 128L143 134C139.762 132.125 138.585 133.575 138 137C141.807 136.884 144.158 136.513 146 133L149 134L148 128z"/>
<path style="fill:#281e1c; stroke:none;" d="M168 128L161 130C158.862 137.302 162.134 149.104 169 153L167 148L172 153L174 153L177 150C178.227 141.355 171.582 135.37 168 128z"/>
<path style="fill:#8a817c; stroke:none;" d="M263 131L263 137L264 137L263 131z"/>
<path style="fill:#d9baa8; stroke:none;" d="M151 132L151 138L152 138L151 132z"/>
<path style="fill:#b3877a; stroke:none;" d="M152 132L151 139L152 132z"/>
<path style="fill:#cead9c; stroke:none;" d="M146 133C144.188 136.716 144.855 138.318 149 139L146 133z"/>
<path style="fill:#706762; stroke:none;" d="M84 136L84 141L85 141L84 136z"/>
<path style="fill:#736862; stroke:none;" d="M262 137L262 140L263 140L262 137z"/>
<path style="fill:#b1816d; stroke:none;" d="M176 138L178 146L180 144C182.591 148.708 185.495 152.175 191 153C187.822 147.562 182.146 139.873 176 138z"/>
<path style="fill:#66443a; stroke:none;" d="M197 141L202 148C202 143.974 206.952 146.545 209 148L222 147L222 146L207 142L207 143L211 144L211 145L197 141z"/>
<path style="fill:#7b706c; stroke:none;" d="M261 142L261 145L262 145L261 142z"/>
<path style="fill:#c49b7b; stroke:none;" d="M137 145L137 146L146 146L147 146L152 151C149.686 143.457 143.762 143.272 137 145z"/>
<path style="fill:#553a33; stroke:none;" d="M104 144L103 152L112 150L112 149L107 149L104 144z"/>
<path style="fill:#ad836a; stroke:none;" d="M119 151L125 152L130 151L130 150L126 150L127 144C122.674 144.727 120.917 147.196 119 151z"/>
<path style="fill:#955a4a; stroke:none;" d="M130 144L128 150L137 145L130 144z"/>
<path style="fill:#ecbd9f; stroke:none;" d="M179 144L182 156L177 152L169 157C165.999 163.606 159.648 167.04 153 164C153.73 167.423 156.789 168.754 160 168L146 209L149 210L147 217L142 216C141.423 218.711 141.233 219.395 144 220L144 221L136 223L137 219C125.728 216.055 126.882 205.091 123.129 196.259C120.852 190.901 116.158 185.122 122.289 179.868C129.443 173.737 145.213 181.268 147 169L127 169L131 174L131 175L118 176C116.703 189.028 114.542 198.852 117.501 212C118.451 216.223 118.356 221.239 122 224C121.146 226.697 121.149 227.386 124 228L125 237C129.541 239.374 137.53 248.75 136 254C139.619 257.304 142.186 262.002 142 267C147.83 271.488 152.778 280.507 160.015 282.316C175.144 286.097 197.662 283.13 207.141 269.335C210.155 264.95 210.142 259.772 211.434 254.83C212.982 248.907 215.666 242.865 213 237L220 230L221 230L225 233L227 218C233.568 213.361 235.652 183.617 229.525 177.899C224.549 173.254 215.187 175 209 175L209 174L217 170C212.953 170 207.01 169.262 206 174L200 173L202 169L194 169L195 164L190 165L187 162C186.936 159.007 187.054 157.654 184 157C185.004 151.608 183.113 147.526 179 144z"/>
<path style="fill:#a07356; stroke:none;" d="M196 144L195 151L199 148L196 144z"/>
<path style="fill:#8a665a; stroke:none;" d="M210 148L218 147C215.058 145.171 212.247 145.235 210 148z"/>
<path style="fill:#7a7572; stroke:none;" d="M260 145L260 149L261 149L260 145z"/>
<path style="fill:#deb096; stroke:none;" d="M125 152C123.894 146.738 113.403 153.078 110 155L109 150L102.603 153.419L102 167L102 199C89.7561 195.451 100.046 181.617 98 173L95 173C92.267 179.326 90.6228 187.247 92.9198 193.996C94.6206 198.994 102.324 202.995 98 208C99.2942 214.36 105.202 216.348 107.728 222.015C116.372 241.4 121 258.908 121 280L122 280L122 258L123 258C135.783 281.395 166.361 291.566 191 284.026C201.299 280.875 221.757 265.479 219 253C223.25 251.811 223.356 247.522 225.722 244.134C234.083 232.164 231.969 211.829 235.606 197.741C236.803 193.108 237.392 183.577 232 182C232.081 191.792 234.189 210.33 227 218L225 233L221 230L220 230L213 237C214.8 243.067 212.973 248.092 211.38 254C210.063 258.89 210.041 264.184 207.141 268.536C197.953 282.326 176.058 286.026 161.004 282.316C152.957 280.332 149.271 270.792 142 267C142.425 262.061 140.314 256.639 136 254C138.788 248.969 129.954 238.559 125 237L124 228L122 224C110.89 211.282 117.253 190.589 118 176L131 175L131 174L127 169L154 168L153 164C159.335 167.697 167.019 164.107 169 157C173.025 156.295 173.645 154.094 170 152L170 154C162.709 150.01 151.456 154.262 147 146L125 152z"/>
<path style="fill:#986852; stroke:none;" d="M150 146L152 152L157 151L150 146z"/>
<path style="fill:#603b32; stroke:none;" d="M178 146L177 150L173 154L179 150L180 153L181 153L178 146z"/>
<path style="fill:#a27359; stroke:none;" d="M201 146L201 149L208 147L201 146z"/>
<path style="fill:#936651; stroke:none;" d="M158 147L158 152L163 151L163 150L158 147z"/>
<path style="fill:#c39071; stroke:none;" d="M195 153L209 148C203.656 146.214 197.308 147.71 195 153z"/>
<path style="fill:#d0a68e; stroke:none;" d="M209 148L209 149L214 149L215 155C212.477 156.417 213.542 157.483 216 158C216.61 162.495 224.98 163.716 229 164L229 167L220 167L220 166L222 164L216 162C212.952 174.554 196.563 160.276 194 169L202 169L200 173L206 174C208.46 170.097 212.668 170.09 217 170L209 174L209 175C213.754 175 219.199 174.27 223.83 175.46C244.131 180.675 232.928 206.514 230.823 219.961C229.161 230.577 229.977 246.61 219 253C219.463 258.456 214.645 265.21 211.02 269.205C197.681 283.904 184.002 286 165 286L165 287C185.978 290.895 212.079 281.563 224.117 262.996C232.567 249.961 235.228 235.823 241.363 222.019C244.146 215.76 251.5 215.279 253 208C248.629 203.218 255.544 199.04 257.057 194C259.627 185.438 255.029 178.401 255 170L251 170C250.954 175.58 248.332 182.775 255 185C254.999 190.807 255.309 194.691 250 198L251 188L248 188C247.994 179.654 247.48 163.511 243.566 156.188C241.441 152.211 235.091 148.817 232 153C223.807 148.308 218.649 145.703 209 148z"/>
<path style="fill:#684b3d; stroke:none;" d="M232 147L225 148L232 153C236.857 149.313 242.517 153.96 244 159C246.699 152.003 237.745 147.958 232 147z"/>
<path style="fill:#6b3d30; stroke:none;" d="M167 148L168 154L172 152L172 151L167 148z"/>
<path style="fill:#e6b99c; stroke:none;" d="M206 148L196 155C198.043 162.222 209.887 159 216 159L216 158L213 158L215 155L214 149L206 148z"/>
<path style="fill:#766e6b; stroke:none;" d="M88 149L88 154L89 154L88 149z"/>
<path style="fill:#7b7774; stroke:none;" d="M259 149L259 152L260 152L259 149z"/>
<path style="fill:#916e5a; stroke:none;" d="M109 150L110 155L117 153L117 152L113 152L109 150z"/>
<path style="fill:#b37d61; stroke:none;" d="M174 155L177 152L182 156L182 152L179 150L174 155z"/>
<path style="fill:#daa586; stroke:none;" d="M184 150L184 157L187 162L190 165L200 161L196 155L206 151L206 150L192 150L193 153L184 150z"/>
<path style="fill:#d9d9d9; stroke:none;" d="M85 152L79 161L76 160C76.5047 175.839 54.4019 183.926 56 201C51.4783 201.969 50.4588 210.838 49.6111 215C47.0381 227.631 37.5286 242.886 41 256C35.2874 257.224 38.8014 268.357 37.6944 273C32.9765 292.788 36.6302 313.807 34 334L58 326C54.6004 311.721 58.4783 296.338 59.4066 282C59.7585 276.565 59.6717 268.393 63 264C62.4613 260.768 61.1017 259.275 64 260C63.6789 254.318 64.4771 246.578 68 242L69 237L68 234C71.8257 231.3 72.6548 224.408 72 220L74 220L72 213C76.4415 210.413 79.2274 201.977 79 197L83 197L83 171C90.7446 169.904 91.9429 155.297 85 152z"/>
<path style="fill:#716a64; stroke:none;" d="M258 153L257 158L258 158L258 153z"/>
<path style="fill:#847b76; stroke:none;" d="M89 155L89 158L90 158L89 155z"/>
<path style="fill:#715f53; stroke:none;" d="M101 155L100 189L101 189C102.683 179.937 104.601 163.581 101 155z"/>
<path style="fill:#acaba6; stroke:none;" d="M90 158L90 163L91 163L90 158z"/>
<path style="fill:#bb856b; stroke:none;" d="M138 158L138 159L144 159L138 158z"/>
<path style="fill:#d67e72; stroke:none;" d="M257 158L252 170L255 170L257.532 191L251 208L253 208C263.797 192.794 270.731 172.924 257 158z"/>
<path style="fill:#6a5b54; stroke:none;" d="M132 159L132 160L135 165L136 165L136 159L132 159z"/>
<path style="fill:#44261c; stroke:none;" d="M136 159C136.201 175.969 155.333 159.015 136 159z"/>
<path style="fill:#7b6557; stroke:none;" d="M145 159L146 165L147 165L147 162L152 166C150.851 162.001 148.904 160.342 145 159z"/>
<path style="fill:#966046; stroke:none;" d="M201 159L201 160L204 160L201 159z"/>
<path style="fill:#4a2a1f; stroke:none;" d="M201 160C201.349 170.652 211.88 169.193 212 159L201 160z"/>
<path style="fill:#605657; stroke:none;" d="M212 159L212 164L213 164L215 159L212 159z"/>
<path style="fill:#512d21; stroke:none;" d="M126 162L126 163L134 161L126 162z"/>
<path style="fill:#feffff; stroke:none;" d="M139.333 160.667L139.667 161.333L139.333 160.667z"/>
<path style="fill:#65666a; stroke:none;" d="M142 160L142 163L143 163L144 160L142 160z"/>
<path style="fill:#886054; stroke:none;" d="M200 160L195 166L198 163L201 164L200 160z"/>
<path style="fill:#513124; stroke:none;" d="M214 160L214 161L223 164L223 163L214 160z"/>
<path style="fill:#b8866f; stroke:none;" d="M118 168L131 168L131 167L129 166L133 161L118 168z"/>
<path style="fill:#c8baaf; stroke:none;" d="M133 161L132 166L137 168L135 161L133 161z"/>
<path style="fill:#ddd8de; stroke:none;" d="M143.333 161.667L143.667 162.333L143.333 161.667z"/>
<path style="fill:#786264; stroke:none;" d="M144.333 161.667L144.667 162.333L144.333 161.667z"/>
<path style="fill:#80716e; stroke:none;" d="M203.333 161.667L203.667 162.333L203.333 161.667z"/>
<path style="fill:#cdc9ca; stroke:none;" d="M204.333 161.667L204.667 162.333L204.333 161.667z"/>
<path style="fill:#ffffff; stroke:none;" d="M208.333 161.667L208.667 162.333L208.333 161.667z"/>
<path style="fill:#c0baba; stroke:none;" d="M209.333 161.667L209.667 162.333L209.333 161.667z"/>
<path style="fill:#d0bfb7; stroke:none;" d="M213 161L211 168C214.768 166.616 215.695 164.956 216 161L213 161z"/>
<path style="fill:#d48775; stroke:none;" d="M97 208C99.4727 207.17 101.109 205.993 99.7631 203.07C94.3735 191.366 87.7733 184.883 97 172C95.7146 169.785 94.4778 164.305 91.8148 163.461C86.4561 161.763 83.8798 173.645 84.1991 177C85.2118 187.641 91.9373 198.87 97 208z"/>
<path style="fill:#895847; stroke:none;" d="M122 165L129 164C126.184 162.491 124.031 162.42 122 165z"/>
<path style="fill:#dfd2bf; stroke:none;" d="M147 162L146 167L149 162L147 162z"/>
<path style="fill:#d6c9b9; stroke:none;" d="M198 163L202 167L200 163L198 163z"/>
<path style="fill:#b27257; stroke:none;" d="M223 163L220 166L220 167L229 167L229 164L223 163z"/>
<path style="fill:#c64d45; stroke:none;" d="M257 163C261.594 173.519 259.957 180.03 259 191L260 191C263.221 182.228 267.469 168.031 257 163z"/>
<path style="fill:#7e6b64; stroke:none;" d="M205 164L204 166L206 166L205 164z"/>
<path style="fill:#f8cab2; stroke:none;" d="M186 165C186.266 174.2 190.758 197.408 200 201L200 207C203.249 208.806 203.599 210.383 203 214L207 214L206 217L213 219L217 215L216 212C227.792 209.452 227.736 186.348 220.732 179.148C216.575 174.874 201.863 176.049 196 176L191 171L191 173L186 165z"/>
<path style="fill:#c14a42; stroke:none;" d="M88 166C86.1291 174.185 86.3064 179.022 89 187L90 187L91 166L88 166z"/>
<path style="fill:#947968; stroke:none;" d="M245 166L246 175L247 175L245 166z"/>
<path style="fill:#6e4e41; stroke:none;" d="M95 167L96 172L97 172L95 167z"/>
<path style="fill:#f6c8b0; stroke:none;" d="M148 168C142.062 181.229 129.766 171.756 121.56 179.857C115.854 185.49 120.968 191.732 123.129 197.129C126.577 205.741 125.623 217.192 137 219L136 223L144 221L144 220L141 220L142 216L147 217L149 210L146 209L154.613 182L160 168L157 169L148 168z"/>
<path style="fill:#e4e3e8; stroke:none;" d="M83 171L83 197L79 197C78.9259 202.107 75.9514 209.766 72 213L74 220L72 220L68 234L69 237L68 242C64.0125 245.431 63.2088 255.008 64 260L63 264C59.6338 266.941 59.2793 276.55 59.152 281C58.7417 295.341 53.8378 311.919 58 326C78.1041 321.347 105.218 310.162 115 291L116 291C112.382 319.63 120.284 346.094 125.624 374C127.254 382.515 126.131 391.499 127.339 400C130.722 423.808 136.968 447.965 138 472L147 472L153.378 425L162.574 398L156 383L144.741 380.216L134 387C142.709 374.636 158.934 359.917 173 354C173.481 357.062 180.204 359.079 183 360.806C188.467 364.182 201.411 374.188 202.481 380.912C203.263 385.822 193.822 377.607 191.412 378.954C187.425 381.181 182.211 393.53 182.292 398C182.452 406.833 188.452 416.46 190.63 425C194.624 440.662 196 455.878 196 472L204 472C204.676 439.254 214.589 402.588 222.884 371C228.297 350.387 237.159 325.525 235.907 304C235.451 296.178 232.154 289.375 230 282C248.335 300.724 265.856 314.952 292 321C292 291.187 286.686 263.033 277.709 234.715C275.341 227.244 274.369 213.047 267 209C268.219 203.356 265.702 198.858 263 194L261 194C257.683 199.676 255.112 206.584 251.273 211.826C248.879 215.094 244.51 216.039 242.275 219.299C238.647 224.589 238.379 232.08 236.191 238C233.646 244.883 229.212 251.102 226.815 258C222.987 269.017 229.472 280.957 227.535 292C223.996 312.168 204.596 326.92 190 339.421C185.924 342.911 179.481 351.103 174 351.839C169.09 352.498 163.418 346.221 160 343.424C148.758 334.228 136.696 324.457 127.669 313C123.68 307.937 118.917 301.643 118.249 295C116.909 281.669 123.431 268.767 120.32 255C117.954 244.529 112.539 228.25 106.772 219.184C102.308 212.166 96.4151 206.7 92.3233 199C87.6387 190.184 86.7635 179.886 83 171z"/>
<path style="fill:#81594d; stroke:none;" d="M250 173L250 178L251 178L250 173z"/>
<path style="fill:#dba486; stroke:none;" d="M186 204L185 204L184 202C178.622 208.794 174.181 207.251 167 204C170.221 212.419 182.879 208.005 190 208L193 214L187 215L188 211L173 213L173 214L191 219L190 215L196 215L190.557 191L184 175C174.941 179.995 183.654 196.677 186 204z"/>
<path style="fill:#cc7c65; stroke:none;" d="M99 177C98.2675 184.113 89.8161 197.058 102 199L102 186L101 186L101 189L100 189L99 177z"/>
<path style="fill:#9c5948; stroke:none;" d="M249 178L248 187L250 187L249 178z"/>
<path style="fill:#c7705c; stroke:none;" d="M250 182L248 187L248 188C251.771 190.447 250.741 193.993 250 198C255.923 195.486 255 190.686 255 185L250 182z"/>
<path style="fill:#d79f84; stroke:none;" d="M163 189L155.028 199.093L153 213L161 215L163 210L160 209L157 211C155.083 200.478 172.994 198.114 163 189z"/>
<path style="fill:#a47460; stroke:none;" d="M164 207L164 208L168 208L164 207z"/>
<path style="fill:#55241d; stroke:none;" d="M162 208C163.927 210.895 165.987 210.82 168 208L162 208z"/>
<path style="fill:#9c5e47; stroke:none;" d="M168 208L171 210L168 208z"/>
<path style="fill:#91533c; stroke:none;" d="M180 208L180 210L182 210L182 208L180 208z"/>
<path style="fill:#732e1e; stroke:none;" d="M182 208L182 210L188 210L182 208z"/>
<path style="fill:#ca8f71; stroke:none;" d="M187 208L166 210L166 211L188 211L187 215L193 214L190 208L187 208z"/>
<path style="fill:#e48986; stroke:none;" d="M152 230C133.392 245.195 168.359 244.157 178 243.986C181.704 243.92 184.187 243.443 187 246L199 241L199 239L149 238L149 234L169 233L152 230z"/>
<path style="fill:#c8886f; stroke:none;" d="M149 234L149 238L150 238C158.532 231.536 177.617 237.818 188 236.83C193.111 236.344 196.985 235.167 201 239L202 235C185.035 230.961 166.292 234 149 234z"/>
<path style="fill:#ad5a52; stroke:none;" d="M150 236L150 238L200 239C198.916 233.942 191.934 236.231 188 236.778C175.752 238.479 162.406 236 150 236z"/>
<path style="fill:#daa887; stroke:none;" d="M122 258C122 271.919 115.771 287.624 119.8 301C121.478 306.571 125.664 311.343 129 316L136 319L133 310L142 306C146.805 307.798 158.951 318.248 161 308L166 309L166 308L164 307L165 305C180.804 308.258 193.148 309.614 208 304L215 313L216 313C217.721 310.636 224.222 300.875 219 300L222 293L220 290L216 292L212 289L211 292L210 292L211 288L207 287L204 291L201 290L189 297C179.243 290.7 163.79 296.839 154 288L134 276C136.606 268.48 127.363 262.344 122 258z"/>
<path style="fill:#d6c9c0; stroke:none;" d="M225 259L225 272L226 272L225 259z"/>
<path style="fill:#c89a78; stroke:none;" d="M224 263L201 281C199.707 291.7 185.316 292.88 177 294L177 295L189 297L201 290L204 291L207 287L211 288L210 292L211 292L212 289L216 292L220 290L222 293L219 300C225.43 300 214.59 313.945 212.833 316C205.083 325.064 194.284 332.688 185 340.167C181.181 343.243 177.817 347.986 173 349L173 350C182.631 350.491 191.281 339.165 198 333.166C218.925 314.481 236.309 292.268 224 263z"/>
<path style="fill:#be8969; stroke:none;" d="M135 272L134 276C139.783 280.508 146.022 289.06 154 288C164.036 301.449 194.542 294.115 202 282C186.055 285.029 173.682 291.296 157 285.006C148.936 281.965 143.26 274.148 135 272z"/>
<path style="fill:#9897a7; stroke:none;" d="M230.333 282.667L230.667 283.333L230.333 282.667z"/>
<path style="fill:#060c0a; stroke:none;" d="M231 283L236.685 303L235 321L237 320C237.093 336.826 242.654 340.732 252 354L247 350C249.371 358.507 260.041 365.229 268 368L285.128 350.829L276 330L278 330C277.853 325.395 279.743 324.098 284 323L284 326L289 325L289 329L305 335L324 339L325 336L329 337L328 341L331 343L343 342L344 345L345 345L349 342L348 345L354 346C353.236 336.407 330.967 333.209 323 330.656C304.644 324.774 283.945 321.591 267 312.138C252.71 304.166 243.467 292.563 231 283z"/>
<path style="fill:#9495a9; stroke:none;" d="M231.333 286.667L231.667 287.333L231.333 286.667z"/>
<path style="fill:#848283; stroke:none;" d="M235 287L236 288L235 287z"/>
<path style="fill:#848798; stroke:none;" d="M232.333 288.667L232.667 289.333L232.333 288.667z"/>
<path style="fill:#bcadb2; stroke:none;" d="M118 290L118 298L119 298L118 290z"/>
<path style="fill:#91939f; stroke:none;" d="M115 291L115 295L116 295L115 291z"/>
<path style="fill:#858386; stroke:none;" d="M238 291L239 292L238 291z"/>
<path style="fill:#21262a; stroke:none;" d="M114 293C105.066 303.226 95.7638 312.881 82 316L82 317L87 317C82.0514 324.576 64.3687 343.243 68.4113 352.985C70.6678 358.423 77.5357 361.296 81 366C75.5806 369.051 60.0446 378.557 57.7569 384.185C55.1127 390.691 62.4052 403.839 64.7963 410C72.5165 429.892 79.6281 451.087 84 472L138 472L118.174 355L114.015 315L114 293z"/>
<path style="fill:#5e6170; stroke:none;" d="M234 293L234 296L235 296L234 293z"/>
<path style="fill:#858688; stroke:none;" d="M241 294L242 295L241 294z"/>
<path style="fill:#757776; stroke:none;" d="M242 295L243 296L242 295z"/>
<path style="fill:#5e605f; stroke:none;" d="M243 296L244 297L243 296z"/>
<path style="fill:#939496; stroke:none;" d="M110 297L111 298L110 297z"/>
<path style="fill:#878a99; stroke:none;" d="M235 297L235 301L236 301L235 297z"/>
<path style="fill:#9f9fab; stroke:none;" d="M114 299L114 307L115 307L114 299z"/>
<path style="fill:#5c5d5f; stroke:none;" d="M247 299L248 300L247 299z"/>
<path style="fill:#3a3e49; stroke:none;" d="M236 301L236 309L237 309L236 301z"/>
<path style="fill:#707070; stroke:none;" d="M250 301L251 302L250 301z"/>
<path style="fill:#7e7e7e; stroke:none;" d="M253 303L254 304L253 303z"/>
<path style="fill:#e9ba9c; stroke:none;" d="M165 305L166 308L166 309L161 308C158.096 317.429 147.222 307.425 142 306L133 310C134.956 324.117 148.602 331.066 158.143 340.1C161.995 343.747 169.073 349.845 174.91 348.522C184.868 346.267 198.332 330.065 205.91 323.285C208.833 320.671 213.861 317.32 214.418 313.104C214.858 309.781 209.554 306.801 208 304L195.014 309.057L165 305z"/>
<path style="fill:#878b8c; stroke:none;" d="M100 307L101 308L100 307z"/>
<path style="fill:#939393; stroke:none;" d="M259 307L260 308L259 307z"/>
<path style="fill:#5d5d5d; stroke:none;" d="M260 308L261 309L260 308z"/>
<path style="fill:#4e5464; stroke:none;" d="M235 310L235 314L236 314L235 310z"/>
<path style="fill:#8c8c8c; stroke:none;" d="M265 311L266 312L265 311z"/>
<path style="fill:#a5a6b8; stroke:none;" d="M114 314L114 321L115 321L114 314z"/>
<path style="fill:#4b5151; stroke:none;" d="M84.6667 315.333L85.3333 315.667L84.6667 315.333z"/>
<path style="fill:#946764; stroke:none;" d="M130 315L137 323L138 322L130 315z"/>
<path style="fill:#abadaa; stroke:none;" d="M273.667 315.333L274.333 315.667L273.667 315.333z"/>
<path style="fill:#10181a; stroke:none;" d="M0 384L6 383L5 389L9 388L9 393L10 393L13 387L12 391L17 393L18 382L27 378L28 378C28.8124 382.638 31.5844 382.65 35 380L44 385L44 382L48 379L44 376L48 373L49 382L54 382C54.24 403.746 68.4989 428.537 75.1875 449.004C77.3124 455.506 78.4113 467.765 84 472C81.2328 451.551 72.6024 430.312 65.564 411C63.2698 404.705 55.6646 391.736 57.8356 385.093C59.9366 378.665 75.5721 370.561 81 366L68.5031 352.166L72.1397 341L87 317L58 326.424L22 339.015L1.02778 347.513L0 358L0 384z"/>
<path style="fill:#b3b5b4; stroke:none;" d="M282.667 318.333L283.333 318.667L282.667 318.333z"/>
<path style="fill:#1e2326; stroke:none;" d="M234 319C233.841 338.241 226.125 358.489 221.286 377C213.395 407.19 206.535 440.969 204 472L255 472C259.195 452.42 269.771 430.569 277.666 412.09C280.594 405.237 288.458 393.598 287.277 386.015C286.61 381.733 281.929 379.589 280 376L290.147 386.17L281.127 409L266.725 449.83L258 472L341 472L349 450C356.413 444.541 354 430.074 354 422L354 346L349 342L345 345L344 345L343 342L331 343L328 341L329 337L325 336L324 339L305 335L289 329L289 325L284 326L284 323C279.334 323.617 277.601 325.135 278 330L276 330L284.558 350.829L268 368C260.099 364.068 250.55 358.485 247 350L252 354L238.495 336.791L237 320L234 319z"/>
<path style="fill:#a5a7a6; stroke:none;" d="M285.667 319.333L286.333 319.667L285.667 319.333z"/>
<path style="fill:#aeb0af; stroke:none;" d="M288.667 320.333L289.333 320.667L288.667 320.333z"/>
<path style="fill:#9396a7; stroke:none;" d="M115 322L115 329L116 329L115 322z"/>
<path style="fill:#a35c3c; stroke:none;" d="M137 322C140.264 328.94 149.234 336.49 156 340C152.714 333.241 143.728 325.137 137 322z"/>
<path style="fill:#646567; stroke:none;" d="M294.667 322.333L295.333 322.667L294.667 322.333z"/>
<path style="fill:#828685; stroke:none;" d="M298.667 323.333L299.333 323.667L298.667 323.333z"/>
<path style="fill:#717485; stroke:none;" d="M233 324L233 327L234 327L233 324z"/>
<path style="fill:#9da1a2; stroke:none;" d="M306.667 325.333L307.333 325.667L306.667 325.333z"/>
<path style="fill:#4c4e4d; stroke:none;" d="M57.6667 326.333L58.3333 326.667L57.6667 326.333z"/>
<path style="fill:#87888a; stroke:none;" d="M309.667 326.333L310.333 326.667L309.667 326.333z"/>
<path style="fill:#5f5f5f; stroke:none;" d="M54.6667 327.333L55.3333 327.667L54.6667 327.333z"/>
<path style="fill:#858786; stroke:none;" d="M312.667 327.333L313.333 327.667L312.667 327.333z"/>
<path style="fill:#8e91a2; stroke:none;" d="M232.333 328.667L232.667 329.333L232.333 328.667z"/>
<path style="fill:#4d5361; stroke:none;" d="M115 329L115 337L116 337L115 329z"/>
<path style="fill:#a6a9ba; stroke:none;" d="M116 329L117 347L118 347L116 329z"/>
<path style="fill:#979b9c; stroke:none;" d="M319.667 329.333L320.333 329.667L319.667 329.333z"/>
<path style="fill:#404855; stroke:none;" d="M232 330L232 334L233 334L232 330z"/>
<path style="fill:#9ca0a1; stroke:none;" d="M322.667 330.333L323.333 330.667L322.667 330.333z"/>
<path style="fill:#979b9c; stroke:none;" d="M325.667 331.333L326.333 331.667L325.667 331.333z"/>
<path style="fill:#38393b; stroke:none;" d="M38.6667 333.333L39.3333 333.667L38.6667 333.333z"/>
<path style="fill:#848889; stroke:none;" d="M331.667 333.333L332.333 333.667L331.667 333.333z"/>
<path style="fill:#393d3c; stroke:none;" d="M35.6667 334.333L36.3333 334.667L35.6667 334.333z"/>
<path style="fill:#8f92a5; stroke:none;" d="M231 334L231 337L232 337L231 334z"/>
<path style="fill:#8d8e90; stroke:none;" d="M334.667 334.333L335.333 334.667L334.667 334.333z"/>
<path style="fill:#4d534f; stroke:none;" d="M29.6667 336.333L30.3333 336.667L29.6667 336.333z"/>
<path style="fill:#8b8d8c; stroke:none;" d="M340.667 336.333L341.333 336.667L340.667 336.333z"/>
<path style="fill:#b77a5d; stroke:none;" d="M156 338C157.683 343.737 171.713 357.381 177 350L156 338z"/>
<path style="fill:#9093a6; stroke:none;" d="M230.333 338.667L230.667 339.333L230.333 338.667z"/>
<path style="fill:#cbcadc; stroke:none;" d="M118 339C118 355.699 119.656 373.453 126 389L127 389L122.084 359L118 339z"/>
<path style="fill:#3a3b3d; stroke:none;" d="M15.6667 341.333L16.3333 341.667L15.6667 341.333z"/>
<path style="fill:#9295a8; stroke:none;" d="M229 342L229 345L230 345L229 342z"/>
<path style="fill:#494f4f; stroke:none;" d="M6.66667 344.333L7.33333 344.667L6.66667 344.333z"/>
<path style="fill:#4e555f; stroke:none;" d="M118 353L118 358L119 358L118 353z"/>
<path style="fill:#9f9caf; stroke:none;" d="M169 355L169 356L176 357L176 356L173 354L169 355z"/>
<path style="fill:#4b4d62; stroke:none;" d="M157 437C157.904 442.868 165.61 453.33 172 450L172 449L169 444L173 445L174 444L172 438L172 437L175 433L176 430L165 398L176 397C177.92 388.241 191.894 374.896 189.543 366.093C188.721 363.015 184.529 361.054 182 359.62C171.579 353.71 157.047 358.289 152.733 370.001C148.487 381.528 164.492 388.996 161.941 400C159.933 408.66 144.787 431.883 157 437z"/>
<path style="fill:#848a98; stroke:none;" d="M119.333 360.667L119.667 361.333L119.333 360.667z"/>
<path style="fill:#1a1c2b; stroke:none;" d="M153 367C150.651 369.848 148.498 372.4 152 375L153 367z"/>
<path style="fill:#1c1e2d; stroke:none;" d="M190 367L176 397L167 398L167 399C174.772 399.027 175.962 401.013 178 408C174.742 411.1 178.81 414.84 180.415 418.039C183.399 423.988 189.889 434.78 188 441L193 447C198.785 433.182 184.351 413.661 182.723 400C181.914 393.213 187.277 386.79 190.102 381C192.609 375.861 196.452 370.428 190 367z"/>
<path style="fill:#828691; stroke:none;" d="M120.333 368.667L120.667 369.333L120.333 368.667z"/>
<path style="fill:#7a7d8c; stroke:none;" d="M223.333 368.667L223.667 369.333L223.333 368.667z"/>
<path style="fill:#7b7d8a; stroke:none;" d="M194 370L195 371L194 370z"/>
<path style="fill:#6e6f81; stroke:none;" d="M148 372L145 376L155 382L148 372z"/>
<path style="fill:#6e6d7f; stroke:none;" d="M194 372L192 378L200 380L201 379L194 372z"/>
<path style="fill:#6b6f7a; stroke:none;" d="M222.333 372.667L222.667 373.333L222.333 372.667z"/>
<path style="fill:#1f2428; stroke:none;" d="M46 373L44 376L48 379L44 382L44 385L35 380C31.4385 382.128 29.2012 382.383 28 378L27 378L18 382L17 393L15 390L12 391L13 387L10 393L9 393L9 388L5 389L7 387L6 383L0 384L0 472L82 472C79.4495 453.152 70.6984 432.587 63.8657 415C59.9766 404.99 54.3132 392.788 54 382L49 382L48 373L46 373z"/>
<path style="fill:#bebdcf; stroke:none;" d="M134 387L144.447 380.51L154 384C151.094 382.415 148.345 377.467 145.698 376.752C140.825 375.434 135.654 383.454 134 387z"/>
<path style="fill:#0a100e; stroke:none;" d="M280 376C281.39 380.205 286.672 382.243 286.878 387.004C287.221 394.924 280.136 404.873 277.267 412.09C270.081 430.166 257.393 452.814 255 472C260.525 470.06 263.254 458.441 265.592 453.285C272.041 439.062 275.782 423.531 281.505 409C284.151 402.28 290.081 394.393 290.527 387.09C290.86 381.63 284.159 377.98 280 376z"/>
<path style="fill:#9394a8; stroke:none;" d="M148 378C148.928 382.254 150.828 382.861 155 383L155 382L148 378z"/>
<path style="fill:#b5b4c4; stroke:none;" d="M201 378L196 379C199.52 384.205 206.027 383.239 201 378z"/>
<path style="fill:#6c707c; stroke:none;" d="M122.333 379.667L122.667 380.333L122.333 379.667z"/>
<path style="fill:#4c4652; stroke:none;" d="M123 383L127 393L123 383z"/>
<path style="fill:#434a52; stroke:none;" d="M218 388L218 393L219 393L218 388z"/>
<path style="fill:#686473; stroke:none;" d="M124 392L124 396L125 396L128 392L124 392z"/>
<path style="fill:#c0bfcd; stroke:none;" d="M125 394L133 446L134 446L128 394L125 394z"/>
<path style="fill:#595e71; stroke:none;" d="M165 398L176 430L175 433L172 437L172 438L174 444L173 445L169 444L172 449L172 450C165.632 452.3 158.597 442.761 157 437L151 434L148 472L179 472C181.671 472 189.904 473.183 187 469L190 468L190 467L183 460L186 459L184 453L186 450L184 450C184.798 447.323 184.881 446.46 182 446L179 430C173.519 420.686 178.511 401.767 165 398z"/>
<path style="fill:#414457; stroke:none;" d="M170 399L176.775 421.715L179 430L182 446L185 447L184 450L186 450L184 453L186 459L183 460L190 467L190 468L187 469L188 472L196 472L196 459L195 459L195 466L194 466L193 454L188 451L188 450L190 446L186 445C186.512 440.474 185.524 437.474 181 436L179 416C176.912 413.333 176.283 410.99 178 408C177.054 402.225 176.397 399.213 170 399z"/>
<path style="fill:#6b6f7a; stroke:none;" d="M125 400L125 403L126 403L125 400z"/>
<path style="fill:#9394a6; stroke:none;" d="M216 400L216 403L217 403L216 400z"/>
<path style="fill:#292a3c; stroke:none;" d="M163 401L159 422L165 432L164 428L167 430C172.017 422.968 168.208 408.626 165 401L163 401z"/>
<path style="fill:#76778b; stroke:none;" d="M183 402L183 405L184 405L183 402z"/>
<path style="fill:#8c8e9d; stroke:none;" d="M215 405L215 408L216 408L215 405z"/>
<path style="fill:#a4a3b5; stroke:none;" d="M158.333 408.667L158.667 409.333L158.333 408.667z"/>
<path style="fill:#9294a3; stroke:none;" d="M214.333 410.667L214.667 411.333L214.333 410.667z"/>
<path style="fill:#818092; stroke:none;" d="M186.333 411.667L186.667 412.333L186.333 411.667z"/>
<path style="fill:#6a6c79; stroke:none;" d="M127.333 412.667L127.667 413.333L127.333 412.667z"/>
<path style="fill:#4f515d; stroke:none;" d="M214 412L214 415L215 415L214 412z"/>
<path style="fill:#2e303f; stroke:none;" d="M177 414L179 416L181 436C184.84 438.098 185.915 440.694 186 445L190 446L188 450L188 451L193 454L194 466L195 466L195 443L194 443L194 447L193 447C192.482 443.474 191.464 441.978 188 441C190.646 435.262 182.545 417.303 177 414z"/>
<path style="fill:#71737f; stroke:none;" d="M128 415L128 420L129 420L128 415z"/>
<path style="fill:#5e6170; stroke:none;" d="M213.333 416.667L213.667 417.333L213.333 416.667z"/>
<path style="fill:#a7a9b8; stroke:none;" d="M154.333 420.667L154.667 421.333L154.333 420.667z"/>
<path style="fill:#8d8c9e; stroke:none;" d="M189.333 420.667L189.667 421.333L189.333 420.667z"/>
<path style="fill:#838793; stroke:none;" d="M212.333 420.667L212.667 421.333L212.333 420.667z"/>
<path style="fill:#666972; stroke:none;" d="M129 424L129 427L130 427L129 424z"/>
<path style="fill:#717082; stroke:none;" d="M190.333 424.667L190.667 425.333L190.333 424.667z"/>
<path style="fill:#808392; stroke:none;" d="M211 424L211 427L212 427L211 424z"/>
<path style="fill:#656474; stroke:none;" d="M191.333 428.667L191.667 429.333L191.333 428.667z"/>
<path style="fill:#6c6f80; stroke:none;" d="M210 429L210 432L211 432L210 429z"/>
<path style="fill:#5d5c6e; stroke:none;" d="M192.333 433.667L192.667 434.333L192.333 433.667z"/>
<path style="fill:#9c9daf; stroke:none;" d="M209 433L209 436L210 436L209 433z"/>
<path style="fill:#6f717e; stroke:none;" d="M131 435L131 438L132 438L131 435z"/>
<path style="fill:#9799a8; stroke:none;" d="M193 436L193 439L194 439L193 436z"/>
<path style="fill:#898a9c; stroke:none;" d="M208 438L208 441L209 441L208 438z"/>
<path style="fill:#6f737f; stroke:none;" d="M132 440L132 443L133 443L132 440z"/>
<path style="fill:#9fa1b6; stroke:none;" d="M149 441L149 447L150 447L149 441z"/>
<path style="fill:#060803; stroke:none;" d="M353 441L349 450L341 472L350 472L353 441z"/>
<path style="fill:#494d58; stroke:none;" d="M207 446L207 453L208 453L207 446z"/>
<path style="fill:#828491; stroke:none;" d="M134.333 450.667L134.667 451.333L134.333 450.667z"/>
<path style="fill:#1f2729; stroke:none;" d="M353 450L350 472L354 472L353 450z"/>
<path style="fill:#a9a9b5; stroke:none;" d="M195 452L195 459L196 459L195 452z"/>
<path style="fill:#9497a8; stroke:none;" d="M206.333 453.667L206.667 454.333L206.333 453.667z"/>
<path style="fill:#a0a2ae; stroke:none;" d="M135 454L135 457L136 457L135 454z"/>
<path style="fill:#9699aa; stroke:none;" d="M148 454L148 461L149 461L148 454z"/>
<path style="fill:#a7a9b6; stroke:none;" d="M136 459L136 462L137 462L136 459z"/>
<path style="fill:#606372; stroke:none;" d="M205 460L205 464L206 464L205 460z"/>
<path style="fill:#616571; stroke:none;" d="M136 462L136 465L137 465L136 462z"/>
<path style="fill:#b8b8c2; stroke:none;" d="M147 462L147 472L148 472L147 462z"/>
<path style="fill:#9597a6; stroke:none;" d="M204 465L204 468L205 468L204 465z"/>
<path style="fill:#787a87; stroke:none;" d="M137 466L137 469L138 469L137 466z"/>
</svg>
